<?xml version="1.0" encoding="UTF-8"?>
<svg width="122px" height="120px" viewBox="0 0 122 120" version="1.1" xmlns="http://www.w3.org/2000/svg" xmlns:xlink="http://www.w3.org/1999/xlink">
    <!-- Generator: Sketch 57.1 (83088) - https://sketch.com -->
    <title>bckg-1</title>
    <desc>Created with Sketch.</desc>
    <defs>
        <polygon id="path-1" points="0.127441727 0.0500078125 120.948988 0.0500078125 120.948988 26.9719723 0.127441727 26.9719723"></polygon>
    </defs>
    <g id="Widok-główny" stroke="none" stroke-width="1" fill="none" fill-rule="evenodd">
        <g id="Tuesday,-October-1st" transform="translate(-240.000000, -134.000000)">
            <g id="bckg-1" transform="translate(240.000000, 134.000000)">
                <polygon id="Fill-1" fill="#95C1E8" points="0.560747664 120 121.560748 120 121.560748 0 0.560747664 0"></polygon>
                <g id="Group-19" transform="translate(0.560748, 0.000000)">
                    <path d="M44.835636,60.0721434 C44.835636,68.5570897 51.7813842,75.4366127 60.3480101,75.4366127 C68.9137655,75.4366127 75.8603842,68.5570897 75.8603842,60.0721434 C75.8603842,51.5846106 68.9137655,44.7085363 60.3480101,44.7085363 C51.7813842,44.7085363 44.835636,51.5846106 44.835636,60.0721434 M37.0794489,60.0721434 C37.0794489,59.5686165 37.096859,59.071125 37.1308086,58.5762201 C37.4903266,52.9874159 39.8633194,47.9409379 43.5368446,44.1394819 C47.7709741,39.7543141 53.7382763,37.0263017 60.3480101,37.0263017 C73.2001252,37.0263017 83.6165712,47.3425685 83.6165712,60.0721434 C83.6165712,72.7991317 73.2001252,83.1188474 60.3480101,83.1188474 C47.4985065,83.1188474 37.0794489,72.7991317 37.0794489,60.0721434" id="Fill-2" fill="#BDC3E4"></path>
                    <path d="M52.5919101,60.0721434 C52.5919101,62.7354905 53.9620827,65.0832711 56.0391043,66.4602104 C57.2708669,67.2784416 58.7533345,67.7543781 60.3480971,67.7543781 C64.6309748,67.7543781 68.1042842,64.3150477 68.1042842,60.0721434 C68.1042842,55.8292392 64.6309748,52.3899088 60.3480971,52.3899088 C58.7533345,52.3899088 57.2708669,52.8658452 56.0391043,53.6849387 C53.9620827,55.0618779 52.5919101,57.4087963 52.5919101,60.0721434 M60.3480971,75.4366127 C51.7814712,75.4366127 44.835723,68.5570897 44.835723,60.0721434 C44.835723,51.5846106 51.7814712,44.7085363 60.3480971,44.7085363 C68.9138525,44.7085363 75.8596007,51.5846106 75.8596007,60.0721434 C75.8596007,68.5570897 68.9138525,75.4366127 60.3480971,75.4366127" id="Fill-4" fill="#F7F6F6"></path>
                    <path d="M56.0391043,66.4603828 C53.9620827,65.0825814 52.5919101,62.735663 52.5919101,60.0723159 C52.5919101,57.4089688 53.9620827,55.0620504 56.0391043,53.6851111 C59.4079532,53.9041109 62.0716942,56.6804067 62.0716942,60.0723159 C62.0716942,63.4633629 59.4079532,66.2405209 56.0391043,66.4603828" id="Fill-6" fill="#020304"></path>
                    <path d="M60.3482712,67.7544643 C58.7535086,67.7544643 57.271041,67.2785279 56.0392784,66.4602966 C59.4081273,66.2404347 62.0709978,63.4632767 62.0709978,60.0722296 C62.0709978,56.6803204 59.4081273,53.9040246 56.0392784,53.6850249 C57.271041,52.8650692 58.7535086,52.389995 60.3482712,52.389995 C64.6311489,52.389995 68.1044583,55.8293254 68.1044583,60.0722296 C68.1044583,64.3151339 64.6311489,67.7544643 60.3482712,67.7544643" id="Fill-8" fill="#FABD42"></path>
                    <g id="Group-12">
                        <mask id="mask-2" fill="white">
                            <use xlink:href="#path-1"></use>
                        </mask>
                        <g id="Clip-11"></g>
                        <path d="M110.16612,-1.22619914 L123.538215,-1.22619914 C108.117184,15.2875876 85.6061282,25.6961103 60.5377612,25.6961103 C35.470302,25.6961103 12.9601539,15.2875876 -2.46178489,-1.22619914 L10.9075872,-1.22619914 L12.6696536,-1.22619914 L15.9232578,-1.22619914 L18.7619912,-1.22619914 L32.3991683,-1.22619914 L60.3407656,-1.22619914 L110.16612,-1.22619914 Z" id="Fill-10" fill="#F7F6F6" mask="url(#mask-2)"></path>
                    </g>
                    <path d="M10.5969014,110.35612 L27.1538799,110.35612 L93.5419662,110.35612 L110.098945,110.35612 C110.653455,110.35612 111.104376,109.91036 111.104376,109.361137 C111.104376,108.811051 110.653455,108.364429 110.098945,108.364429 L92.4120525,108.364429 L28.2837935,108.364429 L10.5969014,108.364429 C10.0423906,108.364429 9.59234029,108.811051 9.59234029,109.361137 C9.59234029,109.91036 10.0423906,110.35612 10.5969014,110.35612" id="Fill-13" fill="#BDC3E4"></path>
                    <path d="M25.4906957,101.99171 L40.1987245,101.99171 L80.497818,101.99171 L95.2049763,101.99171 C95.7603576,101.99171 96.2104079,101.545088 96.2104079,100.995864 C96.2104079,100.445778 95.7603576,99.9991569 95.2049763,99.9991569 L78.9578971,99.9991569 L41.7377748,99.9991569 L25.4906957,99.9991569 C24.9361849,99.9991569 24.4861345,100.445778 24.4861345,100.995864 C24.4861345,101.545088 24.9361849,101.99171 25.4906957,101.99171" id="Fill-15" fill="#BDC3E4"></path>
                    <path d="M40.6497324,94.7244536 L53.8335094,94.7244536 L66.8632072,94.7244536 L80.0469842,94.7244536 C80.6023655,94.7244536 81.0515453,94.2786943 81.0515453,93.7294705 C81.0515453,93.1785224 80.6023655,92.7327631 80.0469842,92.7327631 L64.3491928,92.7327631 L56.3475237,92.7327631 L40.6497324,92.7327631 C40.0943511,92.7327631 39.6451712,93.1785224 39.6451712,93.7294705 C39.6451712,94.2786943 40.0943511,94.7244536 40.6497324,94.7244536" id="Fill-17" fill="#BDC3E4"></path>
                </g>
            </g>
        </g>
    </g>
</svg>