<?xml version="1.0" encoding="UTF-8"?>
<svg width="122px" height="119px" viewBox="0 0 122 119" version="1.1" xmlns="http://www.w3.org/2000/svg" xmlns:xlink="http://www.w3.org/1999/xlink">
    <!-- Generator: Sketch 57.1 (83088) - https://sketch.com -->
    <title>bckg-4</title>
    <desc>Created with Sketch.</desc>
    <g id="Widok-główny" stroke="none" stroke-width="1" fill="none" fill-rule="evenodd">
        <g id="Tuesday,-October-1st" transform="translate(-241.000000, -541.000000)">
            <g id="bckg-4" transform="translate(241.000000, 541.000000)">
                <polygon id="Fill-1" fill="#1AABE2" points="0 119 122 119 122 0 0 0"></polygon>
                <g id="Group-6" transform="translate(0.000000, 10.000000)">
                    <path d="M64.5428504,99.5940171 L57.8339952,99.5940171 L57.8339952,44.5863248 C54.3540574,46.6923077 50.4680827,47.8324786 46.597962,47.8324786 C45.3692824,47.8324786 44.1423643,47.717094 42.9304193,47.4846154 C41.1107404,47.134188 39.9322648,45.4188034 40.2933821,43.6555556 C40.6553802,41.891453 42.4283782,40.7495726 44.2418917,41.0974359 C48.5761803,41.9367521 53.1297816,40.4948718 56.8131782,37.2111111 C57.4631894,36.6299145 57.8339952,35.8145299 57.8339952,34.9547009 C54.4007384,37.0401709 50.5535178,38.1683761 46.6375969,38.1683761 C46.3830532,38.1683761 46.1293903,38.1615385 45.8757274,38.1521368 C44.0234598,38.0846154 42.5816328,36.5717949 42.6520948,34.7752137 C42.7234375,32.9786325 44.2735996,31.5794872 46.1320326,31.6461538 C49.9211221,31.7880342 53.7031654,30.3008547 56.8105359,27.5324786 C57.4631894,26.9512821 57.8339952,26.1324786 57.8339952,25.2726496 C54.9776453,27.0051282 51.8297593,28.0982906 48.5523994,28.4094017 C48.4396603,28.4213675 48.3295636,28.4247863 48.2212284,28.4247863 C46.5160501,28.4247863 45.0539653,27.1700855 44.8848567,25.4863248 C44.7069404,23.6982906 46.052763,22.1051282 47.8988651,21.9299145 C51.1911981,21.6179487 54.3426073,20.1435897 56.9761214,17.7418803 C57.523082,17.2410256 57.8339952,16.5444444 57.8339952,15.8145299 C55.7800304,17.0529915 53.7075693,17.6452991 52.2860002,18.0452991 C51.975087,18.1333333 51.6606507,18.1760684 51.3488567,18.1760684 C49.8938181,18.1760684 48.5550417,17.2521368 48.1287471,15.8273504 C47.6134944,14.1017094 48.6360729,12.2940171 50.4152363,11.791453 C53.4618334,10.9333333 55.9623506,9.96068376 57.2694191,6.75470085 C57.6419865,5.83504274 57.8339952,4.87264957 57.8339952,3.88461538 L57.8339952,3.68290598 C57.8339952,1.88632479 59.3374764,0.42991453 61.1879824,0.42991453 C63.0420116,0.42991453 64.5428504,1.88632479 64.5428504,3.68290598 L64.5428504,3.8974359 C64.5428504,4.95982906 64.77009,6.02136752 65.1981462,6.9982906 C66.5087378,10.0008547 68.9731433,10.9487179 71.9616093,11.791453 C73.7416534,12.2940171 74.7659935,14.1017094 74.2472177,15.8273504 C73.8226846,17.2521368 72.4821467,18.1760684 71.0279889,18.1760684 C70.7161949,18.1760684 70.4017586,18.1333333 70.0899647,18.0452991 C68.666634,17.6452991 66.5968152,17.0529915 64.5428504,15.8230769 C64.5428504,16.5452991 64.8511212,17.2393162 65.3963203,17.7350427 C68.0298344,20.1418803 71.1838859,21.6179487 74.4779804,21.9299145 C76.3232019,22.1051282 77.6734283,23.6982906 77.4919889,25.4863248 C77.3219995,27.1700855 75.8616763,28.4247863 74.1573787,28.4247863 C74.047282,28.4247863 73.9363045,28.4213675 73.8244462,28.4094017 C70.5488479,28.0982906 67.4018426,27.0051282 64.5428504,25.274359 C64.5428504,26.1324786 64.914537,26.9538462 65.5680712,27.5324786 C68.6719186,30.3034188 72.4530811,31.7940171 76.244813,31.6461538 C78.1050075,31.5794872 79.6542889,32.9786325 79.7256316,34.7752137 C79.7952127,36.5717949 78.3542666,38.0846154 76.501999,38.1521368 C76.2474553,38.1615385 75.9929116,38.1683761 75.7410103,38.1683761 C71.8233278,38.1683761 67.9796303,37.0401709 64.5428504,34.957265 C64.5428504,35.8145299 64.914537,36.6316239 65.5627866,37.2094017 C69.2479448,40.4948718 73.8024268,41.9376068 78.1393577,41.0974359 C79.9537521,40.7495726 81.7205846,41.891453 82.0834634,43.6555556 C82.4445808,45.4188034 81.2643437,47.134188 79.447307,47.4846154 C78.2344813,47.717094 77.0075632,47.8324786 75.7797643,47.8324786 C71.9078821,47.8324786 68.023669,46.6923077 64.5428504,44.5863248 L64.5428504,99.5940171 Z" id="Fill-2" fill="#E7F4FC"></path>
                    <polygon id="Fill-4" fill="#FAC549" points="0 26.7036752 6.37680335 31.3122222 32.2504187 50.0122222 6.26934893 68.7908547 0 73.3207692 0 61.355812 15.6953917 50.0122222 0 38.6677778"></polygon>
                </g>
            </g>
        </g>
    </g>
</svg>