<?xml version="1.0" encoding="UTF-8"?>
<svg width="122px" height="119px" viewBox="0 0 122 119" version="1.1" xmlns="http://www.w3.org/2000/svg" xmlns:xlink="http://www.w3.org/1999/xlink">
    <!-- Generator: Sketch 57.1 (83088) - https://sketch.com -->
    <title>bckg-2</title>
    <desc>Created with Sketch.</desc>
    <defs>
        <polygon id="path-1" points="0.286343328 0.389880272 32.4381945 0.389880272 32.4381945 46.7580877 0.286343328 46.7580877"></polygon>
    </defs>
    <g id="Widok-główny" stroke="none" stroke-width="1" fill="none" fill-rule="evenodd">
        <g id="Tuesday,-October-1st" transform="translate(-240.000000, -270.000000)">
            <g id="bckg-2" transform="translate(240.000000, 270.000000)">
                <polygon id="Fill-1" fill="#E7F4FC" points="0 119 121 119 121 0 0 0"></polygon>
                <g id="Group-9" transform="translate(14.000000, 0.000000)">
                    <path d="M94.2175799,13.3189256 L94.2175799,0.0497339641 L69.3528634,0.0497339641 L69.3528634,13.3189256 C69.3528634,25.1437069 59.4138259,34.7674415 47.2005498,34.7674415 C34.9837613,34.7674415 25.0482361,25.1437069 25.0482361,13.3189256 L25.0482361,0.0497339641 L0.180007305,0.0497339641 L0.180007305,13.3189256 C0.180007305,38.4196998 21.2751073,58.843781 47.2005498,58.843781 C73.1251141,58.843781 94.2175799,38.4196998 94.2175799,13.3189256" id="Fill-2" fill="#7ECDF2"></path>
                    <path d="M46.6175895,65.5212246 C43.0156872,65.5212246 40.0978127,62.6936149 40.0978127,59.2088368 C40.0978127,55.7223584 43.0156872,52.8964491 46.6175895,52.8964491 C50.2186137,52.8964491 53.1373663,55.7223584 53.1373663,59.2088368 C53.1373663,62.6936149 50.2186137,65.5212246 46.6175895,65.5212246" id="Fill-4" fill="#FAC549"></path>
                    <g id="Group-8" transform="translate(75.515260, 71.412871)">
                        <mask id="mask-2" fill="white">
                            <use xlink:href="#path-1"></use>
                        </mask>
                        <g id="Clip-7"></g>
                        <polygon id="Fill-6" fill="#EC6F87" mask="url(#mask-2)" points="32.4382823 46.7580877 26.0809512 42.1740615 0.286343328 23.5735589 26.1880775 4.8956924 32.4382823 0.389880272 32.4382823 12.2903252 16.790818 23.5735589 32.4382823 34.8576427"></polygon>
                    </g>
                </g>
            </g>
        </g>
    </g>
</svg>