<?xml version="1.0" encoding="UTF-8"?>
<svg width="122px" height="120px" viewBox="0 0 122 120" version="1.1" xmlns="http://www.w3.org/2000/svg" xmlns:xlink="http://www.w3.org/1999/xlink">
    <!-- Generator: Sketch 57.1 (83088) - https://sketch.com -->
    <title>bckg-3</title>
    <desc>Created with Sketch.</desc>
    <defs>
        <polygon id="path-1" points="0.497401466 0.129812751 18.3358238 0.129812751 18.3358238 40.4329654 0.497401466 40.4329654"></polygon>
    </defs>
    <g id="Widok-główny" stroke="none" stroke-width="1" fill="none" fill-rule="evenodd">
        <g id="Tuesday,-October-1st" transform="translate(-240.000000, -405.000000)">
            <g id="bckg-3" transform="translate(240.000000, 405.000000)">
                <polygon id="Fill-1" fill="#FAC549" points="0 120 122 120 122 0 0 0"></polygon>
                <polygon id="Fill-2" fill="#1AABE2" points="41.7452605 113.870439 37 120 49.3199003 120 61 104.913153 72.6800997 120 85 120 80.3357046 113.972881 61 89"></polygon>
                <polygon id="Fill-3" fill="#EC6F87" points="85 0 80.2547395 6.12956085 61 31 41.6642954 6.02627267 37 0 49.3199003 0 61 15.0868473 72.6800997 0"></polygon>
                <polygon id="Fill-4" fill="#020304" points="50 120 73 120 61.4995668 105"></polygon>
                <g id="Group-48" transform="translate(0.000000, 16.000000)">
                    <g id="Group-7" transform="translate(103.578947, 23.521429)">
                        <mask id="mask-2" fill="white">
                            <use xlink:href="#path-1"></use>
                        </mask>
                        <g id="Clip-6"></g>
                        <path d="M18.3359114,0.129812751 L18.3359114,40.4329654 C8.41940193,39.977845 2.4332484,31.7124103 0.893151268,23.8581355 C0.63048547,22.5125996 0.497401466,21.1817172 0.497401466,19.9008291 C0.497401466,8.49178815 8.50345499,0.94006498 18.3359114,0.129812751" id="Fill-5" fill="#F7F6F6" mask="url(#mask-2)"></path>
                    </g>
                    <path d="M109.846209,40.0037411 C110.703375,40.0037411 111.399439,40.6881456 111.399439,41.5320147 C111.399439,42.3767457 110.703375,43.0620122 109.846209,43.0620122 C108.989043,43.0620122 108.292978,42.3767457 108.292978,41.5320147 C108.292978,40.6881456 108.989043,40.0037411 109.846209,40.0037411" id="Fill-8" fill="#FABD42"></path>
                    <path d="M117.894639,35.8648175 C118.75268,35.8648175 119.447869,36.550084 119.447869,37.3930911 C119.447869,38.2386842 118.75268,38.9230887 117.894639,38.9230887 C117.037473,38.9230887 116.342284,38.2386842 116.342284,37.3930911 C116.342284,36.550084 117.037473,35.8648175 117.894639,35.8648175" id="Fill-10" fill="#FABD42"></path>
                    <path d="M114.867416,29.9202383 C115.724582,29.9202383 116.41977,30.6046428 116.41977,31.4485119 C116.41977,32.2932429 115.724582,32.9776475 114.867416,32.9776475 C114.009374,32.9776475 113.314185,32.2932429 113.314185,31.4485119 C113.314185,30.6046428 114.009374,29.9202383 114.867416,29.9202383" id="Fill-12" fill="#FABD42"></path>
                    <path d="M110.683324,49.48714 C111.201652,50.159477 111.066817,51.1197121 110.383885,51.6291366 C109.700079,52.1394231 108.726464,52.0075417 108.208137,51.3352047 C107.68981,50.6611438 107.82377,49.7026326 108.507576,49.1923461 C109.190507,48.6820596 110.164997,48.8148031 110.683324,49.48714" id="Fill-14" fill="#FABD42"></path>
                    <path d="M117.65824,54.2254778 C118.175691,54.8978148 118.041732,55.8571879 117.358801,56.3674744 C116.674994,56.876899 115.701379,56.7458795 115.182177,56.0726805 C114.664725,55.3994816 114.798685,54.4409704 115.482491,53.929822 C116.165422,53.4203974 117.139912,53.5522789 117.65824,54.2254778" id="Fill-16" fill="#FABD42"></path>
                    <path d="M116.857897,45.8759148 C117.376224,46.5482518 117.241389,47.5076249 116.558458,48.0170494 C115.874651,48.5273359 114.901037,48.3963164 114.38271,47.7231175 C113.864382,47.0499186 113.998342,46.0905454 114.682149,45.5802589 C115.36508,45.0708344 116.33957,45.2027159 116.857897,45.8759148" id="Fill-18" fill="#FABD42"></path>
                    <path d="M0.000175110532,21.3803522 C3.54199204,21.5432269 6.5825645,22.7024973 9.09827025,24.4835174 C13.6255082,27.6886227 16.4529534,32.9072786 17.4429352,37.956044 C17.705601,39.300718 17.838685,40.6324623 17.838685,41.9124884 C17.838685,53.3215294 9.83175593,60.8741146 0.000175110532,61.6843668 L0.000175110532,21.3803522 Z" id="Fill-20" fill="#F7F6F6"></path>
                    <path d="M13.0998286,45.3052042 C12.241787,45.3052042 11.5465982,44.6207996 11.5465982,43.7760686 C11.5465982,42.9321995 12.241787,42.246933 13.0998286,42.246933 C13.9569946,42.246933 14.6521834,42.9321995 14.6521834,43.7760686 C14.6521834,44.6207996 13.9569946,45.3052042 13.0998286,45.3052042" id="Fill-22" fill="#FABD42"></path>
                    <path d="M5.05096052,49.4433519 C4.19379447,49.4433519 3.49860566,48.7589474 3.49860566,47.9150783 C3.49860566,47.0703473 4.19379447,46.3859427 5.05096052,46.3859427 C5.90900213,46.3859427 6.60419094,47.0703473 6.60419094,47.9150783 C6.60419094,48.7589474 5.90900213,49.4433519 5.05096052,49.4433519" id="Fill-24" fill="#FABD42"></path>
                    <path d="M8.07862162,55.3887932 C7.22145557,55.3887932 6.5253912,54.7043886 6.5253912,53.8605195 C6.5253912,53.0157885 7.22145557,52.330522 8.07862162,52.330522 C8.93578767,52.330522 9.63185204,53.0157885 9.63185204,53.8605195 C9.63185204,54.7043886 8.93578767,55.3887932 8.07862162,55.3887932" id="Fill-26" fill="#FABD42"></path>
                    <path d="M12.2622749,35.8210294 C11.7448233,35.1486925 11.8787828,34.1893193 12.5617139,33.6798948 C13.2455205,33.1696083 14.2200106,33.3014898 14.7383378,33.9738267 C15.2557894,34.6470257 15.1218299,35.6063988 14.4380233,36.1166853 C13.7550922,36.6269718 12.7806021,36.4942284 12.2622749,35.8210294" id="Fill-28" fill="#FABD42"></path>
                    <path d="M5.28779752,31.0835536 C4.76947034,30.4103547 4.90430545,29.4509815 5.58723653,28.941557 C6.27104315,28.4312705 7.24465771,28.563152 7.76298489,29.2363509 C8.28131206,29.9095498 8.1473525,30.868061 7.46354588,31.3783475 C6.7806148,31.888634 5.80612469,31.7558906 5.28779752,31.0835536" id="Fill-30" fill="#FABD42"></path>
                    <path d="M6.08770243,39.4330304 C5.57025081,38.7606935 5.70421036,37.8004584 6.38714144,37.2910338 C7.07094806,36.7816093 8.04543818,36.9126288 8.56376535,37.5858277 C9.08121697,38.2590267 8.94725741,39.2175378 8.26345079,39.7278243 C7.58051971,40.2381108 6.6060296,40.1053674 6.08770243,39.4330304" id="Fill-32" fill="#FABD42"></path>
                    <path d="M56.6581356,80.7630485 C56.6415001,80.3829195 56.6099802,80.0010666 56.6099802,79.6200757 C56.6082291,57.231255 56.6082291,34.8432963 56.6082291,12.4536137 C56.6082291,12.2243296 56.6152335,11.9950454 56.6082291,11.7657613 C56.6003491,11.4864829 56.7089177,11.2451311 56.8516328,11.0123991 C56.9750857,10.9813682 57.0372499,10.8968951 57.0670187,10.7839769 L57.0416277,10.8012163 C57.5669593,10.5305576 58.1150552,10.3064453 58.6911689,10.1719779 C59.5851082,9.965105 60.4203854,10.0581978 61.1103209,10.723639 C61.2477827,10.8555205 61.4167643,10.958095 61.5708616,11.073599 C61.7100745,11.6778403 61.669799,12.2898393 61.6540391,12.9001144 C61.6417814,13.3966094 61.6146392,13.8922424 61.6137637,14.3878754 C61.6102615,16.908277 61.6120126,19.4295406 61.6137637,21.9499422 C61.6172659,25.3866184 61.6198925,28.8241566 61.6277725,32.2608328 C61.6339014,34.8200231 61.6461591,37.3792134 61.6557902,39.9384037 C61.6575413,40.5478168 61.6155148,41.1598158 61.7731143,41.7614712 C61.8116386,41.9062823 61.8212697,42.0700566 61.7950031,42.2165916 C61.6969412,42.7484274 61.7888742,43.2776773 61.7906253,43.8086511 C61.7923764,44.5292584 61.9053227,45.2550375 61.6925634,45.9721969 C61.6286481,46.1851036 61.6680479,46.4273173 61.6671724,46.6566014 C61.6584169,48.4132972 61.6452836,50.169993 61.6496613,51.9266888 C61.6505369,52.3826712 61.71095,52.8386536 61.7398433,53.2954979 C61.7512254,53.4851314 61.777492,53.6773508 61.7538521,53.8626745 C61.6303992,54.8142899 61.6058837,55.7615954 61.7704876,56.7106249 C61.7958786,56.8597457 61.810763,57.0226582 61.7739898,57.1657453 C61.6671724,57.5855249 61.7144522,57.9932369 61.7862475,58.4112926 C61.8370296,58.7095343 61.8081364,59.0207057 61.8081364,59.3267052 C61.810763,61.083401 61.8063853,62.8400968 61.8133897,64.5967926 C61.8256474,67.9196887 61.8457851,71.2425848 61.8580429,74.5654809 C61.8624206,75.7110396 61.8536651,76.8565984 61.8501629,78.0021571 C61.6549146,78.0323261 61.4640442,78.0599091 61.2854314,78.1616217 C59.7453343,79.0330738 58.2008594,79.8967682 56.6581356,80.7630485" id="Fill-34" fill="#8880BB"></path>
                    <path d="M61.8499002,78.0019847 C61.8534024,76.856426 61.8630335,75.7108673 61.8586558,74.5653085 C61.846398,71.2424124 61.8253847,67.9195163 61.813127,64.5966202 C61.8069981,62.8399244 61.8105004,61.0832286 61.8087492,59.3265328 C61.8078737,59.0205333 61.8367669,58.709362 61.7859849,58.4111202 C61.7150651,57.9930645 61.6669097,57.5853525 61.7746027,57.1655729 C61.8113759,57.0224858 61.795616,56.8595734 61.7702249,56.7104525 C61.605621,55.761423 61.6310121,54.8141175 61.7535894,53.8625021 C61.7772294,53.6771784 61.7518383,53.484959 61.7395806,53.2953255 C61.7106874,52.8393431 61.6502742,52.3824988 61.6493987,51.9265164 C61.6450209,50.1698206 61.6581542,48.4131248 61.6669097,46.6564291 C61.6677853,46.4271449 61.6283854,46.1849312 61.6923007,45.9720245 C61.90506,45.2548651 61.7929893,44.529086 61.7903626,43.8084787 C61.7894871,43.2775049 61.6966785,42.749117 61.7947404,42.2164192 C61.8218825,42.0698843 61.8113759,41.9061099 61.7737271,41.7612988 C61.6152521,41.1596434 61.6572786,40.5476444 61.6555275,39.9382313 C61.646772,37.379041 61.6336387,34.8198507 61.6275098,32.2615224 C61.6205054,28.8239842 61.6170032,25.3864461 61.613501,21.9497698 C61.6117499,19.4293682 61.6099988,16.9081046 61.613501,14.387703 C61.6143766,13.89207 61.6415187,13.396437 61.6537764,12.899942 C61.6695364,12.2896669 61.7098118,11.6776679 61.5714745,11.0734266 C61.7588427,10.7260525 62.0258863,10.420915 62.3769829,10.2554167 C63.1378382,9.89856088 63.9424711,9.73220058 64.7786239,10.039924 C65.1087072,10.1623238 65.4142751,10.3562672 65.7881361,10.3433376 C66.177757,11.1518659 66.3371076,11.9983209 66.3371076,12.8939082 C66.3292276,34.8319183 66.3309787,56.7699284 66.3283521,78.7079385 C66.3283521,79.1251322 66.3913919,79.5509456 66.2119036,79.9543478 C65.9562422,79.8629789 65.6900742,79.7922974 65.445795,79.6785173 C64.5991356,79.2828728 63.7629828,78.869989 62.9180745,78.4708967 C62.5669779,78.3045364 62.2062502,78.1580014 61.8499002,78.0019847" id="Fill-36" fill="#EC6F87"></path>
                    <path d="M64.0387819,83.2041488 C64.0125153,82.9757267 64.007262,82.7447186 63.9564799,82.5223302 C63.7892494,81.7887933 63.3155754,81.3103997 62.5853645,81.0647382 C62.3979962,81.0009523 62.1992457,80.9742313 62.0083753,80.9216511 C61.7308251,80.8440737 61.4637815,80.8406258 61.1941113,80.9587158 C61.0505206,81.0216396 60.889419,81.0483607 60.7475794,81.1130085 C59.8247469,81.537098 59.21974,82.1887476 59.1339359,83.2119066 C59.0603894,84.0937023 59.4281216,84.7677632 60.1653369,85.270292 C60.2607721,85.3358018 60.3772206,85.3754524 60.4892914,85.4090693 C61.2081201,85.621114 61.91294,85.5125057 62.5836134,85.2539146 C63.5283347,84.8893011 63.9809954,84.1712797 64.0387819,83.2041488 M61.8499002,78.0021571 C62.2062502,78.1581738 62.5669779,78.3038468 62.9180745,78.471069 C63.7629828,78.8701614 64.5991356,79.2830452 65.445795,79.6786897 C65.6900742,79.7924698 65.9562422,79.8631513 66.2119036,79.9536582 C66.3230988,80.1674269 66.3213477,80.397573 66.3213477,80.6268572 C66.3222232,82.1939195 66.3397343,83.7618437 66.252179,85.328044 C66.2355435,85.6176661 66.1409838,85.8512601 65.8923269,86.0115866 C65.4965771,86.2667299 65.0920717,86.5106675 64.6928197,86.7615009 C64.0291508,87.1778326 63.3111976,87.5131391 62.7070663,88.0208397 C62.5380846,88.1630649 62.2771699,88.2053014 62.046024,88.2975323 C61.4988036,88.1639268 61.0233785,87.8898202 60.5479534,87.6174376 C59.3878461,86.9537203 58.2321166,86.2805214 57.066756,85.6254238 C56.7603126,85.4530298 56.6018376,85.2332273 56.6070909,84.890163 C56.6281042,83.5144582 56.642113,82.1396153 56.657873,80.7630485 C58.2014723,79.8967682 59.7450716,79.0330738 61.2851688,78.1616217 C61.4646571,78.0599091 61.654652,78.0323261 61.8499002,78.0021571" id="Fill-38" fill="#FABC38"></path>
                    <path d="M65.7881361,10.3432514 C65.4142751,10.357043 65.1087072,10.1622376 64.7786239,10.0398378 C63.9424711,9.73211439 63.1378382,9.89847469 62.3769829,10.2553305 C62.0258863,10.4208288 61.7579672,10.7259663 61.5714745,11.0742024 C61.4165017,10.9578364 61.24752,10.8561239 61.1109338,10.7233804 C60.4201227,10.0579392 59.5848455,9.96570838 58.6909062,10.1725813 C58.1147926,10.3061867 57.5666966,10.530299 57.041365,10.8009578 C56.9809519,10.5673638 57.0562494,10.3458374 57.1315469,10.1320687 C57.2444932,9.80710582 57.3758261,9.48817675 57.5054079,9.17010965 C58.1261748,7.64700785 58.7346839,6.12132014 59.2827798,4.57235923 C59.3335619,4.43099608 59.427246,4.30342445 59.5007924,4.16895706 C59.7730893,4.44133972 60.0383818,4.72234209 60.3229364,4.98351914 C60.4341316,5.08609362 60.5785978,5.17660052 60.7248151,5.22228496 C61.6511498,5.51104506 62.5284535,5.43519166 63.3190776,4.84646584 C63.5073214,4.70596465 63.6798053,4.54650012 63.8601691,4.39651726 C63.9468488,4.60425214 64.0466618,4.80853914 64.1184572,5.02144584 C64.4826871,6.10063285 64.8495436,7.17895789 65.1945114,8.2641787 C65.4116484,8.95203112 65.5911367,9.64936522 65.7881361,10.3432514" id="Fill-40" fill="#FABC38"></path>
                    <path d="M63.8600816,4.39617247 C63.6797177,4.5470173 63.5072339,4.70561986 63.31899,4.84612105 C62.528366,5.43484687 61.6519378,5.51070027 60.7247275,5.22194017 C60.5785102,5.17625573 60.434044,5.08661081 60.3228488,4.98403632 C60.0382942,4.7219973 59.7738773,4.4418569 59.5007049,4.16861227 C59.5138382,4.05655611 59.4954516,3.92898448 59.5453581,3.83416773 C59.9376057,3.08597737 60.1792582,2.28693076 60.4454262,1.49477991 C60.5294793,1.24394651 60.6091545,0.981045519 60.7501185,0.75779517 C61.1931482,0.0621850115 61.8830837,-0.0343556796 62.528366,0.55006029 C62.6404367,0.651772804 62.7349964,0.780206402 62.8067917,0.912087882 C62.8969736,1.07844818 62.9731467,1.25687607 63.0256799,1.43875183 C63.309359,2.42312209 63.5834069,3.41007827 63.8600816,4.39617247" id="Fill-42" fill="#030405"></path>
                    <path d="M57.0668436,10.7843217 C57.0370748,10.8972399 56.9749106,10.981713 56.8514576,11.0127439 C56.8672176,10.8868962 56.9022397,10.7791499 57.0668436,10.7843217" id="Fill-44" fill="#FABC38"></path>
                    <path d="M64.0387819,83.2041488 C63.9809954,84.1712797 63.5283347,84.8893011 62.5836134,85.2539146 C61.91294,85.5125057 61.2081201,85.621114 60.4892914,85.4090693 C60.3772206,85.3754524 60.2607721,85.3358018 60.1653369,85.270292 C59.4281216,84.7677632 59.0603894,84.0937023 59.1339359,83.2119066 C59.21974,82.1887476 59.8247469,81.537098 60.7475794,81.1130085 C60.889419,81.0483607 61.0505206,81.0216396 61.1941113,80.9587158 C61.4637815,80.8406258 61.7308251,80.8440737 62.0083753,80.9216511 C62.1992457,80.9742313 62.3979962,81.0009523 62.5853645,81.0647382 C63.3155754,81.3103997 63.7892494,81.7887933 63.9564799,82.5223302 C64.007262,82.7447186 64.0125153,82.9757267 64.0387819,83.2041488" id="Fill-46" fill="#030405"></path>
                </g>
            </g>
        </g>
    </g>
</svg>