<?xml version="1.0" encoding="UTF-8"?>
<svg width="81px" height="78px" viewBox="0 0 81 78" version="1.1" xmlns="http://www.w3.org/2000/svg" xmlns:xlink="http://www.w3.org/1999/xlink">
    <!-- Generator: Sketch 57.1 (83088) - https://sketch.com -->
    <title>brainly-camp-logo</title>
    <desc>Created with Sketch.</desc>
    <defs>
        <polygon id="path-1" points="0.19995 0.226 20.78345 0.226 20.78345 30.88575 0.19995 30.88575"></polygon>
        <polygon id="path-3" points="0.14305 0.423 46.9515 0.423 46.9515 21.3484 0.14305 21.3484"></polygon>
        <polygon id="path-5" points="0.35675 0.226 12.12325 0.226 12.12325 11.99285 0.35675 11.99285"></polygon>
    </defs>
    <g id="Widok-główny" stroke="none" stroke-width="1" fill="none" fill-rule="evenodd">
        <g id="Inna-opcja-widoku-Copy" transform="translate(-12.000000, -32.000000)">
            <g id="Group">
                <g id="brainly-camp-logo" transform="translate(12.000000, 32.000000)">
                    <g id="Group-22" transform="translate(0.000000, 0.274000)">
                        <path d="M77.2737,70.80095 C79.1242,70.80095 80.6232,72.30145 80.6232,74.14995 C80.6232,76.00045 79.1242,77.49995 77.2737,77.49995 C75.4237,77.49995 73.9242,76.00045 73.9242,74.14995 C73.9242,72.30145 75.4237,70.80095 77.2737,70.80095" id="Fill-1" fill="#ED7086"></path>
                        <g id="Group-5">
                            <mask id="mask-2" fill="white">
                                <use xlink:href="#path-1"></use>
                            </mask>
                            <g id="Clip-4"></g>
                            <polygon id="Fill-3" fill="#FBC648" mask="url(#mask-2)" points="0.19995 0.22575 4.26995 3.25675 20.78345 15.55575 4.20095 27.90625 0.19995 30.88575 0.19995 23.01675 10.21745 15.55575 0.19995 8.09475"></polygon>
                        </g>
                        <path d="M21.9929,51.01235 C21.9929,47.01185 25.0614,44.31235 29.1199,44.31235 C32.5189,44.31235 34.2279,46.29335 35.0049,48.07985 L31.6254,49.65285 C31.2954,48.64335 30.2854,47.76935 29.1199,47.76935 C27.2364,47.76935 25.9739,49.20635 25.9739,51.01235 C25.9739,52.81835 27.2364,54.25585 29.1199,54.25585 C30.2854,54.25585 31.2954,53.38135 31.6254,52.37185 L35.0049,53.92535 C34.2474,55.65385 32.5189,57.71235 29.1199,57.71235 C25.0614,57.71235 21.9929,54.99385 21.9929,51.01235" id="Fill-6" fill="#221E1E"></path>
                        <path d="M40.59715,52.54655 L43.16065,52.54655 L41.87865,48.37105 L40.59715,52.54655 Z M44.20915,55.96455 L39.54815,55.96455 L39.08215,57.47955 L34.63465,57.47955 L39.41215,44.52605 L44.34565,44.52605 L49.12315,57.47955 L44.67515,57.47955 L44.20915,55.96455 Z" id="Fill-8" fill="#221E1E"></path>
                        <polygon id="Fill-10" fill="#221E1E" points="61.2798 49.69155 58.3858 57.47955 56.6378 57.47955 53.7443 49.69155 53.7443 57.47955 49.8213 57.47955 49.8213 44.52605 55.2398 44.52605 57.5118 50.74055 59.7843 44.52605 65.2028 44.52605 65.2028 57.47955 61.2798 57.47955"></polygon>
                        <path d="M73.70775,47.944 L71.22175,47.944 L71.22175,49.983 L73.70775,49.983 C74.36775,49.983 74.89225,49.653 74.89225,48.9735 C74.89225,48.274 74.36775,47.944 73.70775,47.944 L73.70775,47.944 Z M67.29875,44.526 L74.21225,44.526 C77.24225,44.526 78.87375,46.5455 78.87375,48.9735 C78.87375,51.3815 77.24225,53.401 74.21225,53.401 L71.22175,53.401 L71.22175,57.4795 L67.29875,57.4795 L67.29875,44.526 Z" id="Fill-12" fill="#221E1E"></path>
                        <path d="M22.4392,73.85025 C28.3627,69.67475 28.9262,69.18975 28.9262,68.21825 C28.9262,67.59675 28.2657,67.20825 27.4307,67.20825 C26.0517,67.20825 25.0027,67.71375 24.0122,68.54825 L21.8762,65.94575 C23.3717,64.35375 25.5467,63.75175 27.3532,63.75175 C30.7127,63.75175 32.9077,65.61575 32.9077,68.21825 C32.9077,69.98575 31.8972,71.44225 28.8097,73.48125 L33.0237,73.48125 L33.0237,76.89975 L22.4392,76.89975 L22.4392,73.85025 Z" id="Fill-14" fill="#221E1E"></path>
                        <path d="M39.6455,67.20815 C38.4025,67.20815 37.8395,68.23815 37.8395,70.43215 C37.8395,72.62715 38.4025,73.67565 39.6455,73.67565 C40.8885,73.67565 41.4515,72.62715 41.4515,70.43215 C41.4515,68.23815 40.8885,67.20815 39.6455,67.20815 M39.6455,63.75165 C43.51,63.75165 45.394,66.91715 45.394,70.43215 C45.394,73.94765 43.51,77.13265 39.6455,77.13265 C35.7805,77.13265 33.897,73.94765 33.897,70.43215 C33.897,66.91715 35.7805,63.75165 39.6455,63.75165" id="Fill-16" fill="#221E1E"></path>
                        <polygon id="Fill-18" fill="#221E1E" points="50.1511 68.9367 47.9566 71.1122 45.7426 68.8012 50.6951 63.9457 54.0741 63.9457 54.0741 76.8997 50.1511 76.8997"></polygon>
                        <path d="M60.968,67.18915 C59.997,67.18915 59.3365,67.69415 59.3365,68.23815 C59.3365,69.07315 60.366,69.36415 61.143,69.36415 C61.803,69.36415 62.444,69.24765 62.968,68.83965 C62.8905,67.96615 62.347,67.18915 60.968,67.18915 L60.968,67.18915 Z M57.7245,72.95715 C58.4625,73.48115 59.1615,73.65615 60.1135,73.65615 C61.764,73.65615 62.949,72.68515 62.949,71.42265 L62.949,71.36465 C62.2885,72.21915 61.1235,72.68515 59.9385,72.68515 C57.608,72.68515 55.355,71.15115 55.355,68.39315 C55.355,65.57665 57.6665,63.73215 60.735,63.73215 C64.988,63.73215 66.9105,66.62565 66.9105,70.41265 C66.9105,74.74365 64.1335,77.11315 60.1135,77.11315 C58.6375,77.11315 57.1035,76.68615 56.074,75.98665 L57.7245,72.95715 Z" id="Fill-20" fill="#221E1E"></path>
                    </g>
                    <g id="Group-34" transform="translate(21.500000, 20.274000)">
                        <g id="Group-25">
                            <mask id="mask-4" fill="white">
                                <use xlink:href="#path-3"></use>
                            </mask>
                            <g id="Clip-24"></g>
                            <polygon id="Fill-23" fill="#231F20" mask="url(#mask-4)" points="46.95105 0.4229 0.14305 8.4999 0.14305 21.3484 0.14405 21.3484 46.95205 13.3184 46.95205 0.4229"></polygon>
                        </g>
                        <path d="M7.1387,15.5254 C6.9797,15.6589 6.8742,15.7089 6.6097,15.7544 L5.8162,15.8914 L5.8162,14.7284 L6.6097,14.5924 C6.8742,14.5454 6.9797,14.5484 7.1387,14.6264 C7.2967,14.7044 7.3502,14.8549 7.3502,15.0449 C7.3502,15.2234 7.2967,15.3909 7.1387,15.5254 L7.1387,15.5254 Z M5.8162,12.0844 L6.2927,12.0019 C6.5572,11.9564 6.6627,11.9379 6.8212,12.0169 C6.9797,12.0949 7.0327,12.2129 7.0327,12.4034 C7.0327,12.5829 6.9797,12.7184 6.8212,12.8529 C6.6627,12.9854 6.5572,13.0144 6.2927,13.0599 L5.8162,13.1419 L5.8162,12.0844 Z M8.3277,13.3899 C8.8042,13.1179 9.3542,12.4404 9.3542,11.5944 C9.3542,10.7474 8.8042,10.3149 8.2752,10.1949 C7.7467,10.0749 7.0592,10.1419 6.4247,10.2504 L2.7067,10.8874 L2.7067,12.6114 L3.4157,12.4959 L3.4157,16.3454 L2.7067,16.4599 L2.7067,18.1839 L7.0067,17.4464 C7.6942,17.3284 8.4342,17.0424 8.9092,16.6414 C9.3857,16.2434 9.7252,15.7084 9.7252,14.8624 C9.7252,14.0159 9.1742,13.4764 8.3277,13.3899 L8.3277,13.3899 Z" id="Fill-26" fill="#FFFFFF"></path>
                        <path d="M19.15795,12.48825 L19.69645,10.43925 L20.23645,12.30175 L19.15795,12.48825 Z M13.71295,11.93225 C13.61795,12.02425 13.44895,12.10625 13.18445,12.15125 L12.58145,12.25625 L12.58145,10.98675 L13.18445,10.88325 C13.44895,10.83725 13.60745,10.86175 13.71295,10.92875 C13.81895,10.98375 13.97745,11.06175 13.97745,11.38075 C13.97745,11.69675 13.82845,11.82925 13.71295,11.93225 L13.71295,11.93225 Z M23.49295,7.29725 L23.49295,7.29775 L23.27495,7.33525 L23.27495,13.64525 L21.08045,7.71325 L18.43445,8.17175 L16.22795,14.89675 L15.15495,13.26875 C15.47245,13.02325 16.37095,12.33775 16.37095,10.85725 C16.37095,10.06325 16.00145,9.49275 15.47245,9.21275 C14.94245,8.93375 14.25495,8.89575 13.35545,9.04975 L10.18095,9.59975 L10.18095,16.89925 L12.58145,16.48325 L12.58145,14.05225 L12.88845,13.99925 L14.05195,16.22975 L15.90145,15.90825 L16.80045,15.75275 L18.38595,15.47975 L18.66145,14.40625 L20.74445,14.04625 L21.02995,15.02275 L23.27495,14.63425 L23.27495,14.63575 L25.67545,14.22025 L25.67545,6.92075 L23.49295,7.29725 Z" id="Fill-28" fill="#FFFFFF"></path>
                        <path d="M33.477,12.88135 L30.9715,13.31485 L28.732,9.59685 C28.732,9.59685 28.785,10.38785 28.785,10.92085 L28.785,13.67835 L26.4935,14.07485 L26.4935,6.78485 L29.0755,6.33785 L31.1835,10.03135 C31.1835,10.03135 31.131,9.24985 31.131,8.72285 L31.131,5.97585 L33.477,5.57085 L33.477,12.88135 Z" id="Fill-30" fill="#FFFFFF"></path>
                        <polygon id="Fill-32" fill="#FFFFFF" points="42.31535 8.42565 42.31535 11.32265 41.93635 11.38965 39.93035 11.73565 34.24085 12.72115 34.24085 5.42815 36.64135 5.01165 36.64135 10.35565 39.96935 9.77915 39.96935 8.83165 37.48785 4.90215 40.08335 4.45265 41.14135 6.68715 42.21235 4.08415 44.80635 3.63515"></polygon>
                    </g>
                    <g id="Group-54" transform="translate(0.000000, 0.274000)">
                        <path d="M15.6482,41.3488 L15.6482,77.2608 C6.9497,76.8553 1.6982,69.4898 0.3472,62.4918 C0.1167,61.2933 0.0002,60.1073 0.0002,58.9663 C0.0002,48.8003 7.0232,42.0708 15.6482,41.3488" id="Fill-35" fill="#F7F6F6"></path>
                        <path d="M4.72485,55.9435 C5.47685,55.9435 6.08735,56.5535 6.08735,57.306 C6.08735,58.058 5.47685,58.668 4.72485,58.668 C3.97235,58.668 3.36235,58.058 3.36235,57.306 C3.36235,56.5535 3.97235,55.9435 4.72485,55.9435" id="Fill-37" fill="#FABC42"></path>
                        <path d="M11.78515,52.25555 C12.53765,52.25555 13.14765,52.86555 13.14765,53.61805 C13.14765,54.37005 12.53765,54.98005 11.78515,54.98005 C11.03265,54.98005 10.42265,54.37005 10.42265,53.61805 C10.42265,52.86555 11.03265,52.25555 11.78515,52.25555" id="Fill-39" fill="#FABC42"></path>
                        <path d="M9.1294,46.95815 C9.8814,46.95815 10.4919,47.56815 10.4919,48.32065 C10.4919,49.07265 9.8814,49.68265 9.1294,49.68265 C8.3769,49.68265 7.7669,49.07265 7.7669,48.32065 C7.7669,47.56815 8.3769,46.95815 9.1294,46.95815" id="Fill-41" fill="#FABC42"></path>
                        <path d="M5.45925,64.3937 C5.91375,64.9932 5.79575,65.8477 5.19675,66.3022 C4.59675,66.7567 3.74225,66.6392 3.28775,66.0397 C2.83325,65.4402 2.95075,64.5857 3.55075,64.1312 C4.14975,63.6762 5.00475,63.7942 5.45925,64.3937" id="Fill-43" fill="#FABC42"></path>
                        <path d="M11.5774,68.6154 C12.0319,69.2149 11.9144,70.0694 11.3149,70.5239 C10.7149,70.9789 9.8604,70.8609 9.4059,70.2614 C8.9519,69.6619 9.0689,68.8074 9.6689,68.3529 C10.2684,67.8979 11.1229,68.0159 11.5774,68.6154" id="Fill-45" fill="#FABC42"></path>
                        <path d="M10.87575,61.17545 C11.33025,61.77495 11.21225,62.62945 10.61275,63.08395 C10.01325,63.53845 9.15875,63.42095 8.70425,62.82145 C8.24975,62.22195 8.36725,61.36745 8.96675,60.91295 C9.56625,60.45795 10.42125,60.57595 10.87575,61.17545" id="Fill-47" fill="#FABC42"></path>
                        <g id="Group-51" transform="translate(68.500000, 0.000000)">
                            <mask id="mask-6" fill="white">
                                <use xlink:href="#path-5"></use>
                            </mask>
                            <g id="Clip-50"></g>
                            <path d="M6.24025,11.99285 C2.98975,11.99285 0.35675,9.35735 0.35675,6.10935 C0.35675,2.85935 2.98975,0.22585 6.24025,0.22585 C9.49025,0.22585 12.12325,2.85935 12.12325,6.10935 C12.12325,9.35735 9.49025,11.99285 6.24025,11.99285" id="Fill-49" fill="#15AAE3" mask="url(#mask-6)"></path>
                        </g>
                        <polygon id="Fill-52" fill="#ED7086" points="0.19995 8.0949 0.19995 23.0169 10.21745 15.5559"></polygon>
                    </g>
                </g>
            </g>
        </g>
    </g>
</svg>