<?xml version="1.0" encoding="UTF-8"?>
<svg width="14px" height="14px" viewBox="0 0 14 14" version="1.1" xmlns="http://www.w3.org/2000/svg" xmlns:xlink="http://www.w3.org/1999/xlink">
    <!-- Generator: Sketch 57.1 (83088) - https://sketch.com -->
    <title>close</title>
    <desc>Created with Sketch.</desc>
    <g id="Widok-główny" stroke="none" stroke-width="1" fill="none" fill-rule="evenodd">
        <g id="Education-Inspiration-Innovation-Copy" transform="translate(-332.000000, -37.000000)" fill="#000000">
            <g id="close" transform="translate(332.331532, 37.207839)">
                <path d="M0.326773323,1.74306368 L10.9950041,12.4318515 C11.1886984,12.7821774 11.5809747,12.9713649 11.9736502,12.903834 C12.3663258,12.8363032 12.6739139,12.5267556 12.7410173,12.1315787 C12.8081207,11.7364018 12.6201308,11.3416265 12.2720224,11.1466984 L1.65089291,0.410509231 C1.27845017,0.08819339 0.72209685,0.10924591 0.374756901,0.458798472 C0.0274169519,0.808351034 0.0064976907,1.36824841 0.326773323,1.74306368 Z" id="Path"></path>
                <path d="M10.9950041,0.410509231 L0.326773323,11.1466984 C0.0596405631,11.3778779 -0.0564128342,11.740099 0.0262198769,12.0847734 C0.108852588,12.4294479 0.376263082,12.6985618 0.718755791,12.7817209 C1.0612485,12.86488 1.42117676,12.7480873 1.65089291,12.4792529 L12.2720224,1.74306368 C12.5939285,1.53771224 12.7605517,1.15690477 12.6937244,0.779288272 C12.6268972,0.401671779 12.3398793,0.102171741 11.9673185,0.0212916664 C11.5947576,-0.0595884079 11.2105763,0.0941994516 10.9950041,0.410509231 L10.9950041,0.410509231 Z" id="Path"></path>
            </g>
        </g>
    </g>
</svg>