<?xml version="1.0" encoding="UTF-8"?>
<svg width="30px" height="31px" viewBox="0 0 30 31" version="1.1" xmlns="http://www.w3.org/2000/svg" xmlns:xlink="http://www.w3.org/1999/xlink">
    <!-- Generator: Sketch 57.1 (83088) - https://sketch.com -->
    <title>day-3-toggle</title>
    <desc>Created with Sketch.</desc>
    <g id="Widok-główny" stroke="none" stroke-width="1" fill="none" fill-rule="evenodd">
        <g id="Inna-opcja-widoku-Copy" transform="translate(-182.000000, -3203.000000)">
            <g id="day-3-toggle" transform="translate(182.000000, 3203.000000)">
                <g id="Group-14">
                    <g id="2nd-2" transform="translate(4.000000, 10.000000)"></g>
                    <path d="M9,5 L25,5 C27.7614237,5 30,7.23857625 30,10 L30,26 C30,28.7614237 27.7614237,31 25,31 L9,31 C6.23857625,31 4,28.7614237 4,26 L4,10 C4,7.23857625 6.23857625,5 9,5 Z" id="Rectangle" fill="#B9E2FE"></path>
                    <rect id="Rectangle" stroke="#000000" x="0.5" y="0.5" width="25" height="25" rx="5"></rect>
                    <path d="M1,8.66666667 L25,8.66666667" id="Line-2" stroke="#000000" stroke-linecap="square"></path>
                    <g id="Group-11" transform="translate(10.000000, 3.000000)" stroke="#000000" stroke-opacity="0.85">
                        <ellipse id="Oval" cx="1.05" cy="1" rx="1.05" ry="1"></ellipse>
                        <ellipse id="Oval-Copy" cx="5.95" cy="1" rx="1.05" ry="1"></ellipse>
                    </g>
                    <path d="M4,19.726 L4.637,19.05 C5.144,19.726 6.028,20.194 7.055,20.194 C8.316,20.194 9.083,19.57 9.083,18.569 C9.083,17.49 8.199,17.035 6.925,17.035 C6.561,17.035 6.158,17.035 6.028,17.048 L6.028,16.06 C6.171,16.073 6.574,16.073 6.925,16.073 C8.017,16.073 8.94,15.644 8.94,14.643 C8.94,13.681 8.056,13.161 7.003,13.161 C6.054,13.161 5.352,13.525 4.715,14.214 L4.117,13.538 C4.741,12.784 5.742,12.199 7.081,12.199 C8.745,12.199 10.019,13.044 10.019,14.513 C10.019,15.761 8.966,16.385 8.147,16.528 C8.94,16.593 10.149,17.269 10.149,18.66 C10.149,20.103 8.992,21.156 7.081,21.156 C5.612,21.156 4.533,20.506 4,19.726 Z M11.839,21 L11.839,14.721 L12.814,14.721 L12.814,15.735 C13.321,15.072 14.049,14.591 14.907,14.591 L14.907,15.592 C14.79,15.566 14.673,15.553 14.517,15.553 C13.919,15.553 13.1,16.047 12.814,16.554 L12.814,21 L11.839,21 Z M20.679,21 L20.679,20.064 C20.211,20.701 19.444,21.156 18.56,21.156 C16.922,21.156 15.765,19.908 15.765,17.867 C15.765,15.865 16.909,14.565 18.56,14.565 C19.405,14.565 20.172,14.981 20.679,15.67 L20.679,12.329 L21.654,12.329 L21.654,21 L20.679,21 Z M20.679,19.297 L20.679,16.45 C20.328,15.904 19.574,15.436 18.794,15.436 C17.533,15.436 16.779,16.476 16.779,17.867 C16.779,19.258 17.533,20.285 18.794,20.285 C19.574,20.285 20.328,19.843 20.679,19.297 Z" id="3rd" fill="#000000" fill-rule="nonzero"></path>
                </g>
            </g>
        </g>
    </g>
</svg>