<?xml version="1.0" encoding="UTF-8"?>
<svg width="30px" height="31px" viewBox="0 0 30 31" version="1.1" xmlns="http://www.w3.org/2000/svg" xmlns:xlink="http://www.w3.org/1999/xlink">
    <!-- Generator: Sketch 57.1 (83088) - https://sketch.com -->
    <title>day-2-toggle</title>
    <desc>Created with Sketch.</desc>
    <g id="Widok-główny" stroke="none" stroke-width="1" fill="none" fill-rule="evenodd">
        <g id="Inna-opcja-widoku-Copy" transform="translate(-129.000000, -3203.000000)">
            <g id="day-2-toggle" transform="translate(129.000000, 3203.000000)">
                <g id="Group-14">
                    <g id="2nd-2" transform="translate(4.000000, 10.000000)"></g>
                    <path d="M9,5 L25,5 C27.7614237,5 30,7.23857625 30,10 L30,26 C30,28.7614237 27.7614237,31 25,31 L9,31 C6.23857625,31 4,28.7614237 4,26 L4,10 C4,7.23857625 6.23857625,5 9,5 Z" id="Rectangle" fill="#B9E2FE"></path>
                    <rect id="Rectangle" stroke="#000000" x="0.5" y="0.5" width="25" height="25" rx="5"></rect>
                    <path d="M1,8.66666667 L25,8.66666667" id="Line-2" stroke="#000000" stroke-linecap="square"></path>
                    <g id="Group-11" transform="translate(10.000000, 3.000000)" stroke="#000000" stroke-opacity="0.85">
                        <ellipse id="Oval" cx="1.05" cy="1" rx="1.05" ry="1"></ellipse>
                        <ellipse id="Oval-Copy" cx="5.95" cy="1" rx="1.05" ry="1"></ellipse>
                    </g>
                    <path d="M2.702,21 L2.702,20.142 C5.822,17.685 7.512,16.242 7.512,14.747 C7.512,13.642 6.602,13.161 5.705,13.161 C4.665,13.161 3.859,13.603 3.352,14.253 L2.689,13.564 C3.352,12.693 4.483,12.199 5.705,12.199 C7.148,12.199 8.617,13.018 8.617,14.747 C8.617,16.515 6.823,18.127 4.405,20.038 L8.656,20.038 L8.656,21 L2.702,21 Z M14.857,21 L14.857,16.892 C14.857,15.787 14.298,15.436 13.453,15.436 C12.686,15.436 11.958,15.904 11.594,16.411 L11.594,21 L10.619,21 L10.619,14.721 L11.594,14.721 L11.594,15.631 C12.036,15.111 12.894,14.565 13.83,14.565 C15.143,14.565 15.832,15.228 15.832,16.593 L15.832,21 L14.857,21 Z M22.332,21 L22.332,20.064 C21.864,20.701 21.097,21.156 20.213,21.156 C18.575,21.156 17.418,19.908 17.418,17.867 C17.418,15.865 18.562,14.565 20.213,14.565 C21.058,14.565 21.825,14.981 22.332,15.67 L22.332,12.329 L23.307,12.329 L23.307,21 L22.332,21 Z M22.332,19.297 L22.332,16.45 C21.981,15.904 21.227,15.436 20.447,15.436 C19.186,15.436 18.432,16.476 18.432,17.867 C18.432,19.258 19.186,20.285 20.447,20.285 C21.227,20.285 21.981,19.843 22.332,19.297 Z" id="2nd" fill="#000000" fill-rule="nonzero"></path>
                </g>
            </g>
        </g>
    </g>
</svg>