<?xml version="1.0" encoding="UTF-8"?>
<svg width="30px" height="31px" viewBox="0 0 30 31" version="1.1" xmlns="http://www.w3.org/2000/svg" xmlns:xlink="http://www.w3.org/1999/xlink">
    <!-- Generator: Sketch 57.1 (83088) - https://sketch.com -->
    <title>day-1-toggle</title>
    <desc>Created with Sketch.</desc>
    <g id="Widok-główny" stroke="none" stroke-width="1" fill="none" fill-rule="evenodd">
        <g id="Inna-opcja-widoku-Copy" transform="translate(-76.000000, -3203.000000)">
            <g id="day-1-toggle" transform="translate(76.000000, 3203.000000)">
                <g id="Group-14">
                    <g id="2nd-2" transform="translate(4.000000, 10.000000)"></g>
                    <path d="M9,5 L25,5 C27.7614237,5 30,7.23857625 30,10 L30,26 C30,28.7614237 27.7614237,31 25,31 L9,31 C6.23857625,31 4,28.7614237 4,26 L4,10 C4,7.23857625 6.23857625,5 9,5 Z" id="Rectangle" fill="#B9E2FE"></path>
                    <rect id="Rectangle" stroke="#000000" x="0.5" y="0.5" width="25" height="25" rx="5"></rect>
                    <path d="M1,8.66666667 L25,8.66666667" id="Line-2" stroke="#000000" stroke-linecap="square"></path>
                    <g id="Group-11" transform="translate(10.000000, 3.000000)" stroke="#000000" stroke-opacity="0.85">
                        <ellipse id="Oval" cx="1.05" cy="1" rx="1.05" ry="1"></ellipse>
                        <ellipse id="Oval-Copy" cx="5.95" cy="1" rx="1.05" ry="1"></ellipse>
                    </g>
                    <path d="M7.314,21 L7.314,13.759 L5.923,15.228 L5.273,14.565 L7.444,12.329 L8.393,12.329 L8.393,21 L7.314,21 Z M9.836,20.168 L10.343,19.466 C10.759,19.947 11.552,20.363 12.41,20.363 C13.372,20.363 13.892,19.908 13.892,19.284 C13.892,18.595 13.125,18.413 12.28,18.205 C11.214,17.958 10.005,17.672 10.005,16.372 C10.005,15.397 10.85,14.565 12.345,14.565 C13.411,14.565 14.165,14.968 14.672,15.475 L14.217,16.151 C13.84,15.696 13.151,15.358 12.345,15.358 C11.487,15.358 10.954,15.787 10.954,16.346 C10.954,16.944 11.669,17.113 12.488,17.308 C13.58,17.555 14.841,17.867 14.841,19.258 C14.841,20.311 13.996,21.156 12.371,21.156 C11.344,21.156 10.473,20.844 9.836,20.168 Z M18.013,21.156 C17.09,21.156 16.622,20.623 16.622,19.687 L16.622,15.579 L15.582,15.579 L15.582,14.721 L16.622,14.721 L16.622,13.005 L17.597,13.005 L17.597,14.721 L18.871,14.721 L18.871,15.579 L17.597,15.579 L17.597,19.479 C17.597,19.947 17.805,20.285 18.234,20.285 C18.507,20.285 18.767,20.168 18.897,20.025 L19.183,20.753 C18.936,20.987 18.585,21.156 18.013,21.156 Z" id="1st" fill="#000000" fill-rule="nonzero"></path>
                </g>
            </g>
        </g>
    </g>
</svg>